<svg width="24" height="24" viewBox="0 0 24 24" fill="none" xmlns="http://www.w3.org/2000/svg">
<path fill-rule="evenodd" clip-rule="evenodd" d="M14.75 18.75H14.25V19.25H14.75V18.75ZM14 18.5V19.5H15V18.5H14Z" fill="black"/>
<path fill-rule="evenodd" clip-rule="evenodd" d="M12 19.25C12.1381 19.25 12.25 19.1381 12.25 19C12.25 18.8619 12.1381 18.75 12 18.75C11.8619 18.75 11.75 18.8619 11.75 19C11.75 19.1381 11.8619 19.25 12 19.25ZM12 19.5C12.2761 19.5 12.5 19.2761 12.5 19C12.5 18.7239 12.2761 18.5 12 18.5C11.7239 18.5 11.5 18.7239 11.5 19C11.5 19.2761 11.7239 19.5 12 19.5Z" fill="black"/>
<path fill-rule="evenodd" clip-rule="evenodd" d="M8.75 19L9.875 18.3505V19.6495L8.75 19ZM9.625 19.2165V18.7835L9.25 19L9.625 19.2165Z" fill="black"/>
<path fill-rule="evenodd" clip-rule="evenodd" d="M7 3V21C7 21.5523 7.44772 22 8 22H16C16.5523 22 17 21.5523 17 21V3C17 2.44772 16.5523 2 16 2H8C7.44772 2 7 2.44772 7 3ZM7.41667 4V20H16.5833V4H7.41667ZM11.25 20.5C10.9739 20.5 10.75 20.7239 10.75 21C10.75 21.2761 10.9739 21.5 11.25 21.5H12.75C13.0261 21.5 13.25 21.2761 13.25 21C13.25 20.7239 13.0261 20.5 12.75 20.5H11.25ZM9.25 3.25C9.38807 3.25 9.5 3.13807 9.5 3C9.5 2.86193 9.38807 2.75 9.25 2.75C9.11193 2.75 9 2.86193 9 3C9 3.13807 9.11193 3.25 9.25 3.25Z" fill="black"/>
</svg>
