<svg width="24" height="24" viewBox="0 0 24 24" fill="none" xmlns="http://www.w3.org/2000/svg">
<circle cx="12" cy="12" r="1" stroke="black" stroke-width="0.25"/>
<path d="M13.5 13.5L13.604 13.5693L13.604 13.5693L13.5 13.5ZM10.8514 12.8486L10.7282 12.8271L10.7239 12.8519L10.7295 12.8764L10.8514 12.8486ZM13 9.98923L13.0407 10.1074L13.0407 10.1074L13 9.98923ZM10.5 9.5L10.4271 9.39847L10.4127 9.40881L10.4017 9.42273L10.5 9.5ZM9.50001 12.5L9.37504 12.5029L9.50001 12.5ZM10 14.5L9.90106 14.5764L10 14.5ZM13.5 15L13.4217 14.9026L13.4217 14.9026L13.5 15ZM14.2137 14L14.3376 14.0159L14.2137 14ZM15.5 9.5L15.6135 9.44751L15.6135 9.44751L15.5 9.5ZM15.5 11L15.3866 10.9475L15.3704 10.9825L15.3767 11.0205L15.5 11ZM16 14L15.8793 13.9676L16 14ZM15 15.6918L14.9089 15.6062L15 15.6918ZM12.7056 17L12.7283 17.1229L12.7378 17.1212L12.7469 17.118L12.7056 17ZM10 16.3098L10.097 16.231L10 16.3098ZM9.5 14.5L9.3759 14.5149L9.5 14.5ZM9.1455 8.69522L9.17589 8.81647L9.1455 8.69522ZM7.50001 10.5L7.38939 10.4418L7.50001 10.5ZM7.00001 13.5L6.87615 13.5169L7.00001 13.5ZM10 17.5L10.0042 17.3751L10 17.5ZM11.3528 17.25L11.3301 17.1271L11.3218 17.1286L11.3138 17.1312L11.3528 17.25ZM17.6254 16L17.504 15.9704L17.6254 16ZM17.6254 14.8512L17.5006 14.8448L17.6254 14.8512ZM18 12.5L18.1207 12.5327L18.125 12.5166V12.5H18ZM17 11.5L17.0671 11.3945L17 11.5ZM18 10.4258L18.1236 10.4071L18 10.4258ZM15.5 7.5L15.554 7.38727L15.554 7.38727L15.5 7.5ZM13 7L13.0024 7.12498L13.003 7.12496L13 7ZM11 7.5L10.9164 7.40712L11 7.5ZM10 8.65194L9.99109 8.77664L9.993 8.77675L10 8.65194ZM7.00001 7L6.93502 6.89322L7.00001 7ZM5.50001 9.5L5.617 9.54594L5.62049 9.5333L5.50001 9.5ZM5.00001 12.3371L4.87658 12.3569L5.00001 12.3371ZM6.50001 15L6.61731 14.9568L6.50001 15ZM7.00001 17L7.10602 16.9338L7.10602 16.9338L7.00001 17ZM9.1455 18.5L9.1197 18.6223L9.1452 18.6277L9.17072 18.6224L9.1455 18.5ZM14.5 19L14.4997 19.125L14.5 19ZM17 18.306L16.9811 18.1824L16.9566 18.1861L16.9353 18.199L17 18.306ZM19 18L19.0881 18.0887L19.0881 18.0887L19 18ZM19.5 14.8512L19.6202 14.8854L19.6202 14.8854L19.5 14.8512ZM21 12.5L20.8757 12.487L21 12.5ZM18.5 6.5L18.6055 6.43289L18.6055 6.43289L18.5 6.5ZM16.5 5.5L16.5276 5.37809L16.5 5.5ZM14.2772 5L14.2485 5.12168L14.2499 5.12198L14.2772 5ZM11.5728 5L11.5245 4.88468L11.5728 5ZM10 6.5L9.97312 6.62224L9.97945 6.6233L10 6.5ZM9.64549 4.14835L9.60469 4.03019L9.60469 4.03019L9.64549 4.14835ZM5 7.39835L4.87589 7.41321L5 7.39835ZM3.50001 14.5L3.39002 14.5594L3.4022 14.5819L3.42225 14.5979L3.50001 14.5ZM5.00001 15.6918L5.10482 15.6236L5.09372 15.6066L5.07777 15.5939L5.00001 15.6918ZM6.50001 18L6.3952 18.0681L6.40883 18.0891L6.42948 18.1032L6.50001 18ZM11 20L10.9851 20.1241L11 20ZM15 20L14.9628 19.8807L15 20ZM5.75001 16.8459L5.85482 16.7778L5.85482 16.7778L5.75001 16.8459ZM6.50001 19.5L6.57331 19.3988L6.41767 19.594L6.50001 19.5ZM11.3528 21L11.3714 21.1236L11.3962 21.1199L11.4177 21.1069L11.3528 21ZM13 20L13.0228 19.8771L13.0068 19.8741L12.9905 19.8754L13 20ZM17 21L16.9542 20.8837L17 21ZM19 19L18.9074 18.9161L18.8994 18.9248L18.8933 18.9349L19 19ZM19.6441 18L19.5248 17.9625L19.6441 18ZM19.3176 16L19.193 15.9898L19.1917 16.0054L19.1943 16.0208L19.3176 16ZM13.396 13.4307C13.3539 13.4939 13.2496 13.5877 13.0945 13.6871C12.9431 13.784 12.7557 13.8784 12.5605 13.9476C12.3645 14.017 12.1669 14.0587 11.9935 14.0558C11.8205 14.0529 11.683 14.0063 11.5884 13.9116L11.4116 14.0884C11.567 14.2437 11.7761 14.3022 11.9894 14.3058C12.2024 14.3093 12.4309 14.2587 12.644 14.1832C12.8579 14.1075 13.0625 14.0045 13.2293 13.8976C13.3924 13.7931 13.5325 13.6766 13.604 13.5693L13.396 13.4307ZM11.5884 13.9116C11.3527 13.6759 11.1982 13.4026 11.1025 13.1863C11.0548 13.0784 11.0222 12.9858 11.0016 12.9206C10.9913 12.888 10.9841 12.8624 10.9795 12.8452C10.9772 12.8366 10.9755 12.8302 10.9745 12.8261C10.974 12.824 10.9736 12.8225 10.9734 12.8216C10.9733 12.8212 10.9733 12.8209 10.9732 12.8208C10.9732 12.8207 10.9732 12.8207 10.9732 12.8207C10.9732 12.8207 10.9732 12.8207 10.9732 12.8207C10.9732 12.8207 10.9732 12.8208 10.9732 12.8208C10.9732 12.8208 10.9732 12.8208 10.8514 12.8486C10.7295 12.8764 10.7295 12.8765 10.7295 12.8765C10.7295 12.8765 10.7295 12.8766 10.7295 12.8766C10.7296 12.8767 10.7296 12.8768 10.7296 12.8768C10.7296 12.877 10.7297 12.8772 10.7297 12.8775C10.7299 12.878 10.73 12.8786 10.7302 12.8794C10.7306 12.881 10.7311 12.8833 10.7318 12.8861C10.7332 12.8918 10.7353 12.8998 10.738 12.91C10.7435 12.9304 10.7517 12.9596 10.7632 12.9959C10.7861 13.0684 10.8219 13.1698 10.8739 13.2874C10.9775 13.5217 11.1473 13.8241 11.4116 14.0884L11.5884 13.9116ZM10.8514 12.8486C10.9745 12.8702 10.9745 12.8702 10.9745 12.8702C10.9745 12.8702 10.9745 12.8702 10.9745 12.8702C10.9745 12.8701 10.9745 12.8702 10.9745 12.8701C10.9745 12.8701 10.9745 12.8699 10.9746 12.8698C10.9746 12.8696 10.9747 12.8692 10.9748 12.8687C10.9749 12.8677 10.9752 12.8663 10.9755 12.8643C10.9762 12.8604 10.9772 12.8547 10.9785 12.8473C10.9811 12.8325 10.9849 12.811 10.9896 12.7842C10.999 12.7305 11.0121 12.6555 11.027 12.5702C11.0569 12.3994 11.0941 12.1873 11.1231 12.0216L10.8769 11.9784C10.8479 12.1441 10.8107 12.3563 10.7808 12.527C10.7658 12.6124 10.7527 12.6874 10.7433 12.7411C10.7386 12.7679 10.7348 12.7894 10.7323 12.8042C10.731 12.8116 10.73 12.8173 10.7293 12.8212C10.7289 12.8231 10.7287 12.8246 10.7285 12.8256C10.7284 12.8261 10.7284 12.8265 10.7283 12.8267C10.7283 12.8268 10.7283 12.8269 10.7283 12.827C10.7283 12.827 10.7283 12.827 10.7283 12.827C10.7283 12.827 10.7283 12.827 10.7283 12.8271C10.7282 12.8271 10.7282 12.8271 10.7282 12.8271C10.7282 12.8271 10.7282 12.8271 10.8514 12.8486ZM12 11C12.1039 11.0695 12.1039 11.0695 12.1039 11.0695C12.1039 11.0695 12.1039 11.0695 12.1039 11.0695C12.1039 11.0695 12.1039 11.0695 12.1039 11.0694C12.104 11.0694 12.1041 11.0692 12.1042 11.0691C12.1044 11.0687 12.1048 11.0682 12.1053 11.0674C12.1063 11.0659 12.1079 11.0636 12.1099 11.0606C12.1141 11.0545 12.1203 11.0455 12.1283 11.0339C12.1445 11.0106 12.1682 10.977 12.198 10.9361C12.2577 10.8542 12.3415 10.7439 12.4378 10.6294C12.5344 10.5146 12.642 10.3976 12.7495 10.3014C12.8591 10.2033 12.9593 10.1354 13.0407 10.1074L12.9593 9.87103C12.8303 9.91543 12.7002 10.0101 12.5828 10.1151C12.4633 10.222 12.3473 10.3487 12.2465 10.4684C12.1454 10.5886 12.0581 10.7037 11.9961 10.7888C11.965 10.8314 11.9402 10.8665 11.9231 10.8912C11.9145 10.9035 11.9078 10.9132 11.9033 10.9199C11.901 10.9232 11.8993 10.9258 11.8981 10.9276C11.8975 10.9285 11.897 10.9292 11.8967 10.9297C11.8965 10.9299 11.8964 10.9301 11.8963 10.9303C11.8962 10.9303 11.8962 10.9304 11.8962 10.9304C11.8961 10.9304 11.8961 10.9305 11.8961 10.9305C11.8961 10.9305 11.8961 10.9305 12 11ZM13.0407 10.1074C13.2692 10.0288 13.4688 10.0453 13.6102 10.1607C13.7548 10.2786 13.875 10.5286 13.875 11H14.125C14.125 10.4961 13.9975 10.154 13.7683 9.96695C13.5359 9.77738 13.2355 9.77605 12.9593 9.87103L13.0407 10.1074ZM13 9.98923C13.024 9.86656 13.024 9.86656 13.024 9.86656C13.024 9.86656 13.024 9.86655 13.0239 9.86655C13.0239 9.86654 13.0238 9.86652 13.0237 9.86651C13.0236 9.86647 13.0233 9.86642 13.0229 9.86634C13.0222 9.8662 13.0211 9.86598 13.0196 9.8657C13.0167 9.86513 13.0124 9.86428 13.0067 9.86317C12.9953 9.86093 12.9784 9.85764 12.9566 9.85338C12.9131 9.84485 12.8497 9.83246 12.7707 9.81699C12.6126 9.78605 12.3916 9.7428 12.1401 9.69359C11.6372 9.59516 11.0122 9.47286 10.524 9.37733L10.476 9.62267C10.9641 9.7182 11.5892 9.84051 12.0921 9.93894C12.3436 9.98815 12.5646 10.0314 12.7227 10.0623C12.8017 10.0778 12.8651 10.0902 12.9086 10.0987C12.9304 10.103 12.9473 10.1063 12.9587 10.1085C12.9644 10.1096 12.9687 10.1105 12.9716 10.111C12.9731 10.1113 12.9742 10.1115 12.9749 10.1117C12.9753 10.1118 12.9755 10.1118 12.9757 10.1119C12.9758 10.1119 12.9759 10.1119 12.9759 10.1119C12.976 10.1119 12.976 10.1119 12.976 10.1119C12.976 10.1119 12.976 10.1119 13 9.98923ZM10.4017 9.42273C10.014 9.91577 9.74847 10.3697 9.58454 10.8615C9.42062 11.3533 9.36068 11.8758 9.37504 12.5029L9.62498 12.4971C9.61106 11.8896 9.66943 11.3974 9.82171 10.9406C9.974 10.4837 10.2226 10.055 10.5983 9.57727L10.4017 9.42273ZM9.37504 12.5029C9.39334 13.3019 9.38041 13.9019 9.90106 14.5764L10.099 14.4236C9.63571 13.8235 9.64354 13.3078 9.62498 12.4971L9.37504 12.5029ZM9.90106 14.5764C10.1762 14.9328 10.4715 15.1968 10.8163 15.3708C11.1614 15.545 11.5481 15.625 12 15.625V15.375C11.5786 15.375 11.2322 15.3006 10.929 15.1476C10.6255 14.9945 10.3575 14.7585 10.099 14.4236L9.90106 14.5764ZM12 15.625C12.3161 15.625 12.585 15.5961 12.8395 15.5141C13.0947 15.4317 13.3286 15.2982 13.5783 15.0974L13.4217 14.9026C13.1902 15.0887 12.9828 15.2052 12.7627 15.2761C12.5419 15.3473 12.3014 15.375 12 15.375V15.625ZM13.5783 15.0974C13.9486 14.7997 14.2693 14.5477 14.3376 14.0159L14.0897 13.9841C14.0357 14.404 13.7993 14.599 13.4217 14.9026L13.5783 15.0974ZM13.875 11C13.875 11.7619 13.7771 12.3765 13.652 12.8143L13.8923 12.883C14.0245 12.4204 14.125 11.7825 14.125 11H13.875ZM13.652 12.8143C13.5693 13.1037 13.4763 13.3102 13.396 13.4307L13.604 13.5693C13.7041 13.4192 13.8058 13.1858 13.8923 12.883L13.652 12.8143ZM14.3376 14.0159C14.3736 13.736 14.246 13.4179 14.1269 13.1878C14.0655 13.069 14.0022 12.9661 13.9544 12.893C13.9304 12.8563 13.9102 12.8269 13.8958 12.8065C13.8886 12.7963 13.8829 12.7884 13.8789 12.7829C13.8769 12.7801 13.8753 12.778 13.8742 12.7765C13.8737 12.7757 13.8732 12.7751 13.8729 12.7747C13.8728 12.7745 13.8726 12.7743 13.8725 12.7741C13.8725 12.7741 13.8724 12.774 13.8724 12.774C13.8724 12.774 13.8724 12.7739 13.8723 12.7739C13.8723 12.7739 13.8723 12.7739 13.7721 12.8486C13.672 12.9234 13.672 12.9234 13.672 12.9234C13.6719 12.9234 13.6719 12.9234 13.6719 12.9234C13.6719 12.9234 13.6719 12.9234 13.6719 12.9234C13.672 12.9234 13.672 12.9235 13.6721 12.9236C13.6723 12.9238 13.6725 12.9242 13.6729 12.9247C13.6737 12.9258 13.675 12.9275 13.6766 12.9298C13.68 12.9344 13.685 12.9413 13.6914 12.9505C13.7043 12.9688 13.7229 12.9958 13.7452 13.0298C13.7897 13.0979 13.8483 13.1933 13.9049 13.3027C14.0219 13.5288 14.1151 13.7864 14.0897 13.9841L14.3376 14.0159ZM10.5729 9.60153C10.9825 9.30735 11.3394 9.11348 11.7161 8.99222C12.0927 8.87097 12.4957 8.82022 13 8.82022L13 8.57022C12.4786 8.57022 12.0481 8.6227 11.6395 8.75425C11.2308 8.8858 10.8506 9.09431 10.4271 9.39847L10.5729 9.60153ZM13 8.82022C13.5251 8.82022 14.0221 8.78943 14.4496 8.87131C14.8656 8.95099 15.1929 9.13386 15.3866 9.55249L15.6135 9.44751C15.3765 8.9353 14.9666 8.71578 14.4966 8.62578C14.0382 8.53798 13.5006 8.57022 13 8.57022L13 8.82022ZM15.3866 9.55249C15.5039 9.80618 15.5595 10.0303 15.5595 10.25C15.5595 10.4697 15.5039 10.6938 15.3866 10.9475L15.6135 11.0525C15.7421 10.7745 15.8095 10.5144 15.8095 10.25C15.8095 9.98555 15.7421 9.72545 15.6135 9.44751L15.3866 9.55249ZM15.3767 11.0205C15.476 11.6164 15.6853 12.1025 15.8192 12.5454C15.9546 12.9932 16.0251 13.4249 15.8793 13.9676L16.1207 14.0324C16.2831 13.4281 16.2013 12.9456 16.0585 12.473C15.9141 11.9955 15.7193 11.5552 15.6233 10.9795L15.3767 11.0205ZM15.8793 13.9676C15.6871 14.6826 15.4256 15.0563 14.9089 15.6062L15.0911 15.7774C15.6255 15.2086 15.9145 14.7997 16.1207 14.0324L15.8793 13.9676ZM14.9089 15.6062C14.5726 15.9641 14.017 16.283 13.5338 16.5151C13.2943 16.6301 13.0764 16.7221 12.9184 16.7852C12.8394 16.8168 12.7755 16.8411 12.7316 16.8575C12.7096 16.8657 12.6926 16.8719 12.6812 16.876C12.6754 16.878 12.6711 16.8796 12.6683 16.8806C12.6669 16.8811 12.6658 16.8815 12.6651 16.8817C12.6648 16.8818 12.6645 16.8819 12.6644 16.882C12.6643 16.882 12.6643 16.882 12.6642 16.882C12.6642 16.882 12.6642 16.882 12.6642 16.882C12.6642 16.882 12.6642 16.882 12.7056 17C12.7469 17.118 12.7469 17.118 12.747 17.1179C12.747 17.1179 12.747 17.1179 12.7471 17.1179C12.7471 17.1179 12.7472 17.1179 12.7473 17.1178C12.7476 17.1177 12.7479 17.1176 12.7483 17.1175C12.7492 17.1172 12.7504 17.1167 12.752 17.1162C12.7552 17.115 12.7599 17.1133 12.766 17.1111C12.7782 17.1067 12.796 17.1003 12.8188 17.0918C12.8645 17.0748 12.9302 17.0497 13.0112 17.0174C13.173 16.9527 13.3963 16.8585 13.642 16.7404C14.1295 16.5063 14.7211 16.1711 15.0911 15.7774L14.9089 15.6062ZM12.7056 17C12.6959 16.8754 12.6959 16.8754 12.696 16.8754C12.696 16.8754 12.696 16.8754 12.6959 16.8754C12.6959 16.8754 12.6959 16.8754 12.6958 16.8754C12.6956 16.8754 12.6953 16.8754 12.6949 16.8754C12.6941 16.8755 12.6928 16.8756 12.691 16.8757C12.6875 16.876 12.6821 16.8763 12.6749 16.8768C12.6606 16.8777 12.6393 16.8789 12.6117 16.8802C12.5566 16.8827 12.4768 16.8855 12.3786 16.8862C12.1821 16.8876 11.9135 16.8808 11.6246 16.8481C11.3351 16.8154 11.029 16.7571 10.7556 16.6573C10.4813 16.5572 10.2493 16.4186 10.097 16.231L9.90298 16.3886C10.0944 16.6243 10.3725 16.7836 10.6699 16.8922C10.9683 17.0011 11.2956 17.0625 11.5966 17.0965C11.8981 17.1306 12.1771 17.1376 12.3804 17.1362C12.4822 17.1355 12.5654 17.1326 12.6233 17.1299C12.6523 17.1286 12.675 17.1273 12.6906 17.1263C12.6984 17.1258 12.7044 17.1254 12.7085 17.1251C12.7106 17.125 12.7122 17.1249 12.7133 17.1248C12.7139 17.1247 12.7143 17.1247 12.7146 17.1247C12.7148 17.1247 12.7149 17.1246 12.715 17.1246C12.7151 17.1246 12.7151 17.1246 12.7151 17.1246C12.7152 17.1246 12.7152 17.1246 12.7056 17ZM10.097 16.231C9.66409 15.698 9.71466 15.2385 9.62411 14.4851L9.3759 14.5149C9.46034 15.2175 9.41135 15.7833 9.90298 16.3886L10.097 16.231ZM9.62411 14.4851C9.5902 14.2029 9.59012 13.9814 9.5987 13.7563C9.60723 13.5327 9.625 13.2959 9.625 13H9.375C9.375 13.2899 9.35783 13.5123 9.34888 13.7468C9.33999 13.9799 9.33991 14.2155 9.3759 14.5149L9.62411 14.4851ZM9.11511 8.57397C8.12353 8.82249 7.82242 9.61896 7.38939 10.4418L7.61063 10.5582C8.06598 9.69297 8.31714 9.0317 9.17589 8.81647L9.11511 8.57397ZM7.38939 10.4418C7.1083 10.9759 6.93765 11.4447 6.85907 11.933C6.78057 12.4207 6.79505 12.9212 6.87615 13.5169L7.12387 13.4831C7.04473 12.9019 7.03263 12.4279 7.1059 11.9727C7.17909 11.5179 7.33857 11.0752 7.61063 10.5582L7.38939 10.4418ZM9.99583 17.6249C10.282 17.6345 10.6339 17.5685 10.9068 17.5033C11.0448 17.4703 11.1657 17.4368 11.252 17.4116C11.2953 17.3989 11.3299 17.3883 11.3539 17.3808C11.3659 17.3771 11.3753 17.3741 11.3817 17.372C11.3849 17.371 11.3873 17.3702 11.389 17.3697C11.3899 17.3694 11.3905 17.3692 11.391 17.369C11.3912 17.3689 11.3914 17.3689 11.3915 17.3688C11.3916 17.3688 11.3917 17.3688 11.3917 17.3688C11.3917 17.3688 11.3918 17.3688 11.3918 17.3688C11.3918 17.3688 11.3918 17.3688 11.3528 17.25C11.3138 17.1312 11.3138 17.1312 11.3138 17.1312C11.3138 17.1312 11.3138 17.1312 11.3138 17.1312C11.3138 17.1312 11.3138 17.1312 11.3137 17.1313C11.3137 17.1313 11.3136 17.1313 11.3134 17.1314C11.3131 17.1315 11.3126 17.1316 11.3118 17.1319C11.3104 17.1323 11.3082 17.133 11.3053 17.134C11.2995 17.1358 11.2908 17.1386 11.2794 17.1422C11.2567 17.1493 11.2235 17.1594 11.1818 17.1716C11.0984 17.196 10.9818 17.2284 10.8487 17.2601C10.5795 17.3245 10.255 17.3835 10.0042 17.3751L9.99583 17.6249ZM11.3755 17.3729L12.7283 17.1229L12.6829 16.8771L11.3301 17.1271L11.3755 17.3729ZM11.341 17.3744L13.9883 17.6244L14.0118 17.3756L11.3645 17.1256L11.341 17.3744ZM14 17.5C14.0004 17.625 14.0005 17.625 14.0005 17.625C14.0006 17.625 14.0006 17.625 14.0007 17.625C14.0008 17.625 14.001 17.625 14.0013 17.625C14.0017 17.625 14.0024 17.625 14.0033 17.625C14.005 17.625 14.0075 17.625 14.0107 17.6249C14.0172 17.6248 14.0267 17.6247 14.0391 17.6245C14.0637 17.624 14.0997 17.6232 14.1454 17.6215C14.2368 17.6183 14.3675 17.6119 14.5253 17.5996C14.8404 17.575 15.2657 17.5265 15.7036 17.4304C16.1404 17.3346 16.5966 17.19 16.9696 16.9701C17.3426 16.7502 17.6454 16.4467 17.7469 16.0296L17.504 15.9704C17.4243 16.2976 17.1834 16.5539 16.8426 16.7548C16.5019 16.9557 16.0744 17.0931 15.6501 17.1862C15.2269 17.279 14.8138 17.3263 14.5058 17.3504C14.352 17.3624 14.2249 17.3685 14.1365 17.3717C14.0923 17.3733 14.0577 17.3741 14.0344 17.3745C14.0228 17.3747 14.0139 17.3749 14.008 17.3749C14.0051 17.375 14.0029 17.375 14.0015 17.375C14.0008 17.375 14.0003 17.375 13.9999 17.375C13.9998 17.375 13.9997 17.375 13.9996 17.375C13.9996 17.375 13.9996 17.375 13.9996 17.375C13.9996 17.375 13.9996 17.375 14 17.5ZM17.7469 16.0296C17.8046 15.7925 17.7977 15.6017 17.781 15.4188C17.7642 15.235 17.7393 15.07 17.7502 14.8576L17.5006 14.8448C17.4885 15.0804 17.5166 15.2719 17.5321 15.4415C17.5476 15.612 17.5523 15.7716 17.504 15.9704L17.7469 16.0296ZM17.7502 14.8576C17.7975 13.9379 17.8798 13.4215 18.1207 12.5327L17.8794 12.4673C17.6339 13.3733 17.5488 13.9073 17.5006 14.8448L17.7502 14.8576ZM18.0884 12.4116C17.897 12.2202 17.772 12.0542 17.6226 11.8826C17.4749 11.7131 17.3136 11.5514 17.0671 11.3945L16.9329 11.6055C17.1524 11.7451 17.2958 11.8882 17.434 12.0468C17.5705 12.2035 17.7125 12.3893 17.9116 12.5884L18.0884 12.4116ZM17.0671 11.3945C16.5289 11.052 16.1457 10.9243 15.5096 10.8754L15.4904 11.1246C16.0856 11.1704 16.4293 11.285 16.9329 11.6055L17.0671 11.3945ZM18.125 12.5C18.125 12.0988 18.1549 11.7895 18.1704 11.4654C18.1859 11.1432 18.186 10.8183 18.1236 10.4071L17.8764 10.4446C17.9355 10.8342 17.9357 11.1414 17.9207 11.4535C17.9059 11.7638 17.875 12.0912 17.875 12.5H18.125ZM18.1236 10.4071C18.0164 9.70076 17.9006 9.2998 17.6146 8.64517L17.3855 8.74527C17.6628 9.37991 17.7725 9.75983 17.8764 10.4446L18.1236 10.4071ZM17.5737 8.59426C16.8326 8.05323 16.3815 7.78365 15.554 7.38727L15.446 7.61273C16.2597 8.00249 16.6976 8.26419 17.4263 8.79618L17.5737 8.59426ZM15.554 7.38727C14.9798 7.1122 14.3396 6.98494 13.8472 6.92583C13.6002 6.89618 13.3886 6.88348 13.2384 6.87818C13.1633 6.87553 13.1034 6.87473 13.0621 6.8746C13.0415 6.87454 13.0255 6.87464 13.0145 6.87476C13.009 6.87482 13.0047 6.87489 13.0018 6.87494C13.0003 6.87497 12.9992 6.87499 12.9984 6.87501C12.998 6.87501 12.9977 6.87502 12.9974 6.87503C12.9973 6.87503 12.9972 6.87503 12.9972 6.87503C12.9971 6.87503 12.9971 6.87503 12.9971 6.87503C12.997 6.87504 12.997 6.87504 13 7C13.003 7.12496 13.003 7.12496 13.003 7.12496C13.003 7.12496 13.003 7.12496 13.003 7.12496C13.003 7.12496 13.003 7.12496 13.0031 7.12496C13.0032 7.12496 13.0034 7.12496 13.0036 7.12495C13.0042 7.12494 13.005 7.12492 13.0062 7.1249C13.0086 7.12486 13.0123 7.1248 13.0172 7.12475C13.0271 7.12464 13.0419 7.12454 13.0614 7.1246C13.1002 7.12472 13.1574 7.12548 13.2296 7.12802C13.3741 7.13312 13.5787 7.14539 13.8174 7.17405C14.2966 7.23157 14.9065 7.35431 15.446 7.61273L15.554 7.38727ZM13 7C12.9976 6.87502 12.9975 6.87502 12.9975 6.87502C12.9975 6.87503 12.9975 6.87503 12.9974 6.87503C12.9974 6.87503 12.9973 6.87503 12.9971 6.87503C12.9969 6.87504 12.9966 6.87504 12.9962 6.87505C12.9954 6.87507 12.9942 6.8751 12.9927 6.87513C12.9897 6.87521 12.9853 6.87532 12.9796 6.87549C12.9682 6.87583 12.9516 6.87639 12.9304 6.87727C12.888 6.87902 12.8271 6.88204 12.7525 6.88716C12.6035 6.89739 12.399 6.91603 12.1774 6.94974C11.9562 6.98338 11.7153 7.03243 11.4945 7.10424C11.2758 7.17538 11.0661 7.27221 10.9164 7.40712L11.0837 7.59288C11.1954 7.49222 11.3666 7.40875 11.5719 7.34198C11.7751 7.27586 12.0015 7.22936 12.215 7.19689C12.428 7.1645 12.6254 7.14648 12.7696 7.13658C12.8417 7.13163 12.9003 7.12872 12.9407 7.12705C12.9609 7.12622 12.9765 7.1257 12.987 7.12538C12.9923 7.12523 12.9962 7.12512 12.9988 7.12506C13.0001 7.12503 13.0011 7.12501 13.0017 7.12499C13.002 7.12499 13.0022 7.12498 13.0023 7.12498C13.0024 7.12498 13.0024 7.12498 13.0025 7.12498C13.0025 7.12498 13.0025 7.12498 13.0025 7.12498C13.0025 7.12498 13.0024 7.12498 13 7ZM12.9937 8.57038C12.4132 8.59978 11.6674 8.58911 11.0644 8.57089C10.7635 8.5618 10.499 8.55085 10.3097 8.54218C10.2151 8.53785 10.1394 8.53408 10.0873 8.5314C10.0612 8.53006 10.0411 8.52899 10.0276 8.52826C10.0208 8.5279 10.0156 8.52761 10.0122 8.52742C10.0104 8.52733 10.0091 8.52726 10.0083 8.52721C10.0078 8.52719 10.0075 8.52717 10.0073 8.52716C10.0072 8.52715 10.0071 8.52715 10.0071 8.52714C10.0071 8.52714 10.007 8.52714 10.007 8.52714C10.007 8.52714 10.007 8.52714 10 8.65194C9.993 8.77675 9.99302 8.77675 9.99303 8.77675C9.99305 8.77675 9.99307 8.77675 9.9931 8.77675C9.99317 8.77675 9.99325 8.77676 9.99337 8.77677C9.9936 8.77678 9.99395 8.7768 9.9944 8.77682C9.99531 8.77687 9.99665 8.77695 9.99842 8.77705C10.002 8.77724 10.0072 8.77753 10.0141 8.7779C10.0279 8.77864 10.0482 8.77972 10.0744 8.78107C10.1269 8.78377 10.2032 8.78756 10.2983 8.79192C10.4885 8.80063 10.7543 8.81163 11.0569 8.82078C11.6611 8.83903 12.4153 8.85 13.0063 8.82006L12.9937 8.57038ZM10 8.65194C10.0089 8.52726 10.0089 8.52726 10.0089 8.52726C10.0089 8.52726 10.0089 8.52726 10.0089 8.52726C10.0088 8.52725 10.0088 8.52725 10.0087 8.52725C10.0086 8.52724 10.0085 8.52723 10.0084 8.52722C10.008 8.5272 10.0076 8.52717 10.007 8.52713C10.0059 8.52705 10.0042 8.52694 10.0021 8.5268C9.99785 8.52652 9.99171 8.52614 9.98383 8.52568C9.96809 8.52477 9.94542 8.52357 9.91729 8.52239C9.86107 8.52004 9.78269 8.51778 9.69382 8.51812C9.51897 8.51879 9.29264 8.52948 9.11511 8.57397L9.17589 8.81647C9.32247 8.77973 9.5234 8.76878 9.69478 8.76812C9.77901 8.7678 9.85349 8.76994 9.90685 8.77217C9.9335 8.77329 9.95481 8.77442 9.96934 8.77526C9.9766 8.77568 9.98216 8.77603 9.98585 8.77627C9.98769 8.77639 9.98907 8.77648 9.98995 8.77654C9.99039 8.77657 9.9907 8.7766 9.99089 8.77661C9.99099 8.77662 9.99105 8.77662 9.99109 8.77662C9.9911 8.77662 9.99111 8.77663 9.99111 8.77663C9.99111 8.77663 9.99111 8.77662 9.99111 8.77662C9.9911 8.77662 9.99109 8.77662 10 8.65194ZM10.9164 7.40712C10.6876 7.61316 10.4326 7.90732 10.2372 8.14636C10.139 8.26658 10.0547 8.37418 9.99497 8.45176C9.96509 8.49056 9.94133 8.52189 9.92498 8.54358C9.91681 8.55443 9.9105 8.56286 9.9062 8.56862C9.90405 8.5715 9.90241 8.57371 9.90129 8.57522C9.90073 8.57597 9.9003 8.57655 9.9 8.57695C9.89986 8.57714 9.89974 8.5773 9.89966 8.57741C9.89962 8.57746 9.89959 8.5775 9.89957 8.57753C9.89956 8.57755 9.89955 8.57756 9.89954 8.57757C9.89953 8.57758 9.89952 8.57759 10 8.65194C10.1005 8.72629 10.1005 8.72629 10.1005 8.7263C10.1005 8.72629 10.1005 8.72629 10.1005 8.72628C10.1005 8.72627 10.1005 8.72624 10.1006 8.7262C10.1006 8.72613 10.1007 8.72601 10.1008 8.72584C10.1011 8.72551 10.1014 8.72501 10.102 8.72432C10.103 8.72295 10.1045 8.72088 10.1066 8.71815C10.1106 8.71268 10.1167 8.70454 10.1247 8.69401C10.1405 8.67295 10.1638 8.64232 10.1931 8.60427C10.2517 8.52815 10.3344 8.42252 10.4308 8.30458C10.6247 8.06732 10.8698 7.78552 11.0837 7.59288L10.9164 7.40712ZM6.93502 6.89322C6.41408 7.21028 6.02612 7.86661 5.77172 8.41974C5.64283 8.7 5.545 8.96106 5.4794 9.152C5.44656 9.24755 5.42173 9.32575 5.40504 9.38028C5.3967 9.40754 5.39039 9.4289 5.38613 9.44357C5.384 9.4509 5.38238 9.45656 5.38128 9.46045C5.38073 9.46239 5.38031 9.46389 5.38002 9.46494C5.37987 9.46546 5.37976 9.46587 5.37967 9.46616C5.37963 9.46631 5.3796 9.46643 5.37958 9.46652C5.37956 9.46656 5.37955 9.46661 5.37955 9.46663C5.37953 9.46667 5.37953 9.4667 5.50001 9.5C5.62049 9.5333 5.62049 9.53332 5.62048 9.53333C5.62049 9.53332 5.62049 9.53332 5.62049 9.53331C5.6205 9.53328 5.62051 9.53323 5.62054 9.53314C5.62058 9.53297 5.62066 9.53269 5.62077 9.53229C5.62099 9.5315 5.62134 9.53025 5.62182 9.52857C5.62277 9.5252 5.62424 9.52007 5.62621 9.51329C5.63015 9.49971 5.63612 9.4795 5.6441 9.45344C5.66005 9.4013 5.68402 9.32581 5.71583 9.23324C5.77951 9.04791 5.87432 8.79497 5.99885 8.52421C6.2513 7.97532 6.61335 7.38166 7.065 7.10678L6.93502 6.89322ZM5.50001 9.5C5.38366 9.45431 5.38365 9.45434 5.38363 9.45437C5.38363 9.45439 5.38361 9.45443 5.3836 9.45446C5.38357 9.45454 5.38353 9.45464 5.38348 9.45477C5.38338 9.45503 5.38324 9.45539 5.38305 9.45585C5.38269 9.45678 5.38217 9.45813 5.38149 9.45987C5.38014 9.46337 5.37817 9.46849 5.37563 9.47515C5.37055 9.48848 5.3632 9.508 5.35394 9.53314C5.33542 9.58341 5.30927 9.65621 5.2785 9.74694C5.217 9.92829 5.13687 10.1818 5.0623 10.4707C4.91446 11.0435 4.78333 11.7743 4.87658 12.3569L5.12344 12.3174C5.03888 11.7891 5.15776 11.1013 5.30437 10.5332C5.37702 10.2517 5.45522 10.0043 5.51526 9.82723C5.54526 9.73876 5.57067 9.66802 5.58853 9.61955C5.59745 9.59532 5.60448 9.57667 5.60925 9.56417C5.61163 9.55791 5.61344 9.5532 5.61465 9.5501C5.61525 9.54855 5.61569 9.5474 5.61598 9.54666C5.61613 9.54629 5.61623 9.54602 5.61629 9.54586C5.61632 9.54578 5.61635 9.54572 5.61636 9.54569C5.61636 9.54568 5.61636 9.54568 5.61637 9.54567C5.61637 9.54567 5.61636 9.54569 5.50001 9.5ZM4.87658 12.3569C4.97613 12.9789 5.26484 13.3854 5.56813 13.7681C5.8724 14.1521 6.18494 14.5061 6.38271 15.0432L6.61731 14.9568C6.40268 14.3739 6.05953 13.9857 5.76406 13.6129C5.46761 13.2388 5.21252 12.874 5.12344 12.3174L4.87658 12.3569ZM6.38271 15.0432C6.51531 15.4033 6.53242 15.7139 6.57019 16.0416C6.60783 16.3682 6.66602 16.7013 6.89399 17.0662L7.10602 16.9338C6.90744 16.6159 6.85472 16.3268 6.81854 16.0129C6.78249 15.7002 6.76288 15.3522 6.61731 14.9568L6.38271 15.0432ZM6.89399 17.0662C7.17119 17.51 7.46827 17.8462 7.82913 18.0985C8.18999 18.3508 8.60777 18.5143 9.1197 18.6223L9.1713 18.3777C8.68291 18.2747 8.29877 18.1218 7.97238 17.8936C7.64598 17.6654 7.37048 17.3571 7.10602 16.9338L6.89399 17.0662ZM9.17072 18.6224C9.64467 18.5248 10.0145 18.4486 10.3843 18.3724C10.7542 18.2962 11.124 18.2201 11.598 18.1224L11.5475 17.8776C11.0736 17.9752 10.7037 18.0514 10.3339 18.1276C9.96407 18.2038 9.59423 18.2799 9.12028 18.3776L9.17072 18.6224ZM11.598 18.1224C12.0719 18.0248 12.6787 17.8998 13.1671 17.7992C13.4112 17.7489 13.6258 17.7047 13.7793 17.6731C13.856 17.6573 13.9175 17.6446 13.9598 17.6359C13.981 17.6315 13.9973 17.6282 14.0084 17.6259C14.0138 17.6248 14.0182 17.6239 14.021 17.6233C14.0223 17.623 14.0235 17.6228 14.0242 17.6227C14.0249 17.6225 14.0244 17.6226 14.025 17.6225C14.0251 17.6225 14.0251 17.6225 14.0252 17.6224C14.0252 17.6224 14.0252 17.6224 14.0252 17.6224C14.0252 17.6224 14.0252 17.6224 14 17.5C13.9748 17.3776 13.9748 17.3776 13.9748 17.3776C13.9748 17.3776 13.9747 17.3776 13.9747 17.3776C13.9747 17.3776 13.9747 17.3776 13.9746 17.3776C13.9746 17.3776 13.9746 17.3776 13.9745 17.3776C13.9742 17.3777 13.9742 17.3777 13.9737 17.3778C13.9729 17.378 13.972 17.3781 13.9705 17.3785C13.9676 17.379 13.9635 17.3799 13.9579 17.381C13.9469 17.3833 13.9305 17.3867 13.9094 17.391C13.8671 17.3998 13.8056 17.4124 13.7288 17.4282C13.5753 17.4599 13.3608 17.504 13.1166 17.5543C12.6283 17.6549 12.0215 17.7799 11.5475 17.8776L11.598 18.1224ZM11.5323 18.1183C12.0964 18.311 12.509 18.5523 12.9599 18.7591C13.4073 18.9643 13.8716 19.1237 14.4997 19.125L14.5003 18.875C13.9204 18.8738 13.4926 18.7284 13.0642 18.5319C12.6393 18.337 12.1923 18.0795 11.6132 17.8817L11.5323 18.1183ZM14.4997 19.125C15.0136 19.1261 15.4339 19.083 15.8382 18.9708C16.2425 18.8585 16.6249 18.6788 17.0647 18.4129L16.9353 18.199C16.508 18.4573 16.147 18.6256 15.7714 18.7299C15.3957 18.8341 14.9996 18.876 14.5003 18.875L14.4997 19.125ZM17.0189 18.4295C17.2022 18.4015 17.3803 18.4019 17.5568 18.4109C17.7263 18.4196 17.9135 18.438 18.0797 18.442C18.4281 18.4504 18.7734 18.4014 19.0881 18.0887L18.9119 17.9113C18.6661 18.1555 18.402 18.1997 18.0858 18.1921C17.9196 18.188 17.7607 18.171 17.5696 18.1612C17.3855 18.1518 17.1883 18.1507 16.9811 18.1824L17.0189 18.4295ZM19.6202 14.8854C19.7587 14.3987 20.0784 14.1045 20.4074 13.7777C20.7325 13.4547 21.0627 13.1017 21.1243 12.513L20.8757 12.487C20.824 12.9815 20.5533 13.2803 20.2312 13.6003C19.9131 13.9164 19.5394 14.2561 19.3798 14.817L19.6202 14.8854ZM21.1243 12.513C21.1613 12.16 21.0777 11.7885 20.9395 11.436C20.8009 11.0826 20.6041 10.7401 20.4051 10.4421C20.2058 10.1436 20.0025 9.88694 19.8491 9.70499C19.7724 9.61393 19.708 9.54138 19.6626 9.49142C19.6399 9.46643 19.6219 9.44709 19.6095 9.43389C19.6034 9.42729 19.5986 9.42223 19.5953 9.41877C19.5936 9.41704 19.5924 9.4157 19.5915 9.41478C19.591 9.41432 19.5907 9.41396 19.5904 9.4137C19.5903 9.41357 19.5902 9.41347 19.5901 9.4134C19.5901 9.41336 19.5901 9.41332 19.5901 9.4133C19.59 9.41327 19.59 9.41324 19.5 9.5C19.41 9.58676 19.41 9.58674 19.41 9.58674C19.41 9.58675 19.41 9.58675 19.41 9.58676C19.41 9.58679 19.4101 9.58684 19.4102 9.58692C19.4103 9.58707 19.4106 9.58733 19.4109 9.58769C19.4116 9.58841 19.4127 9.58953 19.4141 9.59105C19.417 9.59409 19.4214 9.59872 19.4272 9.60487C19.4387 9.61717 19.4558 9.63556 19.4775 9.65953C19.5211 9.70748 19.5834 9.7777 19.658 9.86611C19.8072 10.0431 20.0044 10.2922 20.1972 10.5809C20.3902 10.87 20.5769 11.1961 20.7068 11.5273C20.837 11.8595 20.9069 12.1887 20.8757 12.487L21.1243 12.513ZM19.5 9.5C19.5467 9.38404 19.5467 9.38403 19.5467 9.38403C19.5466 9.38403 19.5466 9.38402 19.5466 9.38401C19.5466 9.384 19.5465 9.38397 19.5464 9.38395C19.5463 9.38388 19.5461 9.3838 19.5458 9.38368C19.5452 9.38344 19.5443 9.38309 19.5431 9.38262C19.5408 9.38167 19.5374 9.38029 19.5328 9.37845C19.5237 9.37478 19.5102 9.36936 19.4928 9.36235C19.4579 9.34832 19.4072 9.32793 19.344 9.30249C19.2175 9.25159 19.0407 9.18046 18.8396 9.0995C18.4372 8.93759 17.9372 8.7364 17.5467 8.57926L17.4533 8.81118C17.8439 8.96833 18.3439 9.16952 18.7462 9.33143C18.9474 9.41239 19.1242 9.48352 19.2507 9.53441C19.3139 9.55986 19.3646 9.58025 19.3994 9.59427C19.4169 9.60128 19.4304 9.60671 19.4395 9.61038C19.444 9.61221 19.4475 9.61362 19.4498 9.61455C19.451 9.61501 19.4519 9.61537 19.4525 9.61561C19.4527 9.61572 19.453 9.61582 19.4531 9.61587C19.4532 9.6159 19.4533 9.61593 19.4533 9.61594C19.4533 9.61595 19.4533 9.61595 19.4533 9.61596C19.4533 9.61596 19.4533 9.61596 19.5 9.5ZM19.5 9.5C19.6232 9.4788 19.6232 9.47878 19.6232 9.47875C19.6232 9.47873 19.6232 9.47869 19.6232 9.47865C19.6232 9.47857 19.6231 9.47846 19.6231 9.47833C19.6231 9.47805 19.623 9.47765 19.6229 9.47714C19.6227 9.47612 19.6225 9.47463 19.6221 9.47268C19.6214 9.46878 19.6204 9.46305 19.6191 9.45559C19.6164 9.44066 19.6124 9.41876 19.6071 9.3906C19.5964 9.33429 19.5805 9.25291 19.5593 9.15208C19.517 8.95051 19.4536 8.67083 19.3693 8.35816C19.2017 7.7364 18.9478 6.97079 18.6055 6.43289L18.3946 6.56711C18.7153 7.07109 18.9614 7.80548 19.1279 8.42325C19.2108 8.73035 19.2731 9.00531 19.3147 9.20344C19.3354 9.30247 19.351 9.38221 19.3614 9.43705C19.3666 9.46447 19.3705 9.48566 19.373 9.49992C19.3743 9.50705 19.3753 9.51245 19.3759 9.51602C19.3762 9.51781 19.3765 9.51914 19.3766 9.52001C19.3767 9.52044 19.3767 9.52076 19.3768 9.52096C19.3768 9.52106 19.3768 9.52113 19.3768 9.52117C19.3768 9.52119 19.3768 9.5212 19.3768 9.52121C19.3768 9.52121 19.3768 9.5212 19.5 9.5ZM18.6055 6.43289C18.3004 5.95347 18.0502 5.73988 17.7233 5.62424C17.5662 5.56866 17.3954 5.5372 17.2044 5.50493C17.0113 5.4723 16.7928 5.43817 16.5276 5.37809L16.4724 5.62191C16.7459 5.68388 16.9725 5.71929 17.1627 5.75144C17.3551 5.78394 17.5058 5.8125 17.6399 5.85993C17.8954 5.95029 18.1066 6.11465 18.3946 6.56711L18.6055 6.43289ZM16.5276 5.37809C16.0936 5.27974 15.5378 5.15472 15.0906 5.0543C14.8669 5.00408 14.6704 4.96002 14.5298 4.9285C14.4595 4.91274 14.4032 4.90012 14.3644 4.89144C14.345 4.8871 14.33 4.88375 14.3199 4.88148C14.3148 4.88034 14.311 4.87948 14.3084 4.8789C14.3071 4.87861 14.3061 4.87839 14.3055 4.87824C14.3051 4.87817 14.3049 4.87811 14.3047 4.87807C14.3046 4.87806 14.3046 4.87804 14.3045 4.87803C14.3045 4.87803 14.3045 4.87803 14.3045 4.87802C14.3045 4.87802 14.3045 4.87802 14.2772 5C14.2499 5.12198 14.2499 5.12198 14.2499 5.12198C14.2499 5.12199 14.2499 5.12199 14.2499 5.12199C14.25 5.122 14.25 5.12202 14.2501 5.12204C14.2503 5.12207 14.2505 5.12213 14.2508 5.1222C14.2515 5.12235 14.2525 5.12257 14.2538 5.12286C14.2564 5.12344 14.2602 5.1243 14.2653 5.12543C14.2754 5.1277 14.2904 5.13106 14.3098 5.1354C14.3485 5.14407 14.4048 5.15669 14.4751 5.17245C14.6157 5.20396 14.8122 5.24802 15.0358 5.29823C15.483 5.39864 16.0386 5.52362 16.4724 5.62191L16.5276 5.37809ZM14.2772 5C14.3058 4.87833 14.3058 4.87832 14.3058 4.87832C14.3057 4.87831 14.3057 4.8783 14.3057 4.87829C14.3056 4.87827 14.3055 4.87825 14.3053 4.87822C14.3051 4.87815 14.3047 4.87807 14.3042 4.87796C14.3033 4.87774 14.3019 4.87742 14.3001 4.87702C14.2966 4.8762 14.2915 4.87503 14.2848 4.87353C14.2714 4.87054 14.2518 4.86625 14.2266 4.86096C14.1764 4.85039 14.1037 4.83582 14.0137 4.81965C13.8337 4.78735 13.5834 4.74857 13.3018 4.72269C12.7449 4.67151 12.042 4.66821 11.5245 4.88468L11.621 5.11532C12.0778 4.92424 12.7271 4.92093 13.2789 4.97164C13.5516 4.99671 13.7947 5.03434 13.9695 5.06572C14.0569 5.0814 14.1271 5.09549 14.1752 5.10561C14.1993 5.11067 14.2178 5.11474 14.2302 5.11751C14.2364 5.1189 14.2411 5.11997 14.2442 5.12067C14.2457 5.12102 14.2469 5.12129 14.2476 5.12145C14.2479 5.12154 14.2482 5.1216 14.2483 5.12163C14.2484 5.12165 14.2485 5.12166 14.2485 5.12167C14.2485 5.12167 14.2485 5.12167 14.2485 5.12167C14.2485 5.12167 14.2485 5.12167 14.2772 5ZM13 7C13.0206 6.8767 13.0206 6.8767 13.0205 6.8767C13.0205 6.87669 13.0205 6.87669 13.0205 6.87669C13.0204 6.87667 13.0204 6.87667 13.0202 6.87665C13.02 6.87662 13.0196 6.87655 13.0192 6.87648C13.0184 6.87634 13.017 6.8761 13.0153 6.87582C13.0118 6.87524 13.0066 6.87437 12.9997 6.87323C12.9861 6.87095 12.9658 6.86758 12.9397 6.86323C12.8874 6.85451 12.8114 6.84185 12.7166 6.82603C12.5268 6.79441 12.2617 6.75022 11.9599 6.69992C11.3563 6.59933 10.6063 6.47433 10.0205 6.3767L9.97945 6.6233C10.5652 6.72093 11.3152 6.84593 11.9188 6.94652C12.2206 6.99682 12.4857 7.04101 12.6755 7.07263C12.7703 7.08844 12.8463 7.10111 12.8986 7.10982C12.9247 7.11418 12.945 7.11755 12.9586 7.11983C12.9655 7.12097 12.9707 7.12184 12.9742 7.12242C12.9759 7.12271 12.9773 7.12293 12.9781 7.12308C12.9785 7.12314 12.979 7.12322 12.9791 7.12324C12.9797 7.12334 12.9789 7.1232 12.9794 7.12329C12.9794 7.12329 12.9794 7.12329 12.9794 7.1233C12.9795 7.1233 12.9795 7.1233 13 7ZM10.0268 6.37792C8.94219 6.13943 7.88369 6.31584 6.93502 6.89322L7.065 7.10678C7.95867 6.56287 8.95138 6.39742 9.97316 6.62208L10.0268 6.37792ZM11.5245 4.88468C11.067 5.07606 10.7615 5.23538 10.5175 5.4681C10.2735 5.70082 10.0999 5.99842 9.88709 6.44636L10.1129 6.55364C10.3235 6.11027 10.4811 5.84826 10.6901 5.64901C10.899 5.44976 11.1681 5.30474 11.621 5.11532L11.5245 4.88468ZM14.2772 5C14.364 4.91007 14.364 4.91006 14.3639 4.91003C14.3639 4.91001 14.3639 4.90998 14.3638 4.90995C14.3638 4.90987 14.3637 4.90977 14.3635 4.90964C14.3633 4.90937 14.3629 4.90899 14.3623 4.90848C14.3613 4.90747 14.3597 4.90599 14.3577 4.90405C14.3537 4.90017 14.3477 4.89445 14.3399 4.88702C14.3243 4.87217 14.3014 4.85046 14.272 4.82289C14.2132 4.76774 14.1284 4.68909 14.0239 4.59475C13.8152 4.40618 13.5277 4.15445 13.2129 3.90242C12.8986 3.6508 12.5547 3.39684 12.2336 3.20517C12.073 3.10932 11.9158 3.02767 11.7693 2.9697C11.624 2.91226 11.4817 2.875 11.3528 2.875V3.125C11.4371 3.125 11.546 3.15024 11.6773 3.20217C11.8073 3.25358 11.9519 3.32818 12.1054 3.41983C12.4126 3.60316 12.7464 3.8492 13.0566 4.09758C13.3664 4.34555 13.65 4.59382 13.8564 4.78025C13.9595 4.87341 14.0431 4.95101 14.101 5.00524C14.1299 5.03235 14.1523 5.05361 14.1675 5.06806C14.1751 5.07528 14.1808 5.08079 14.1847 5.08448C14.1866 5.08632 14.188 5.08771 14.189 5.08862C14.1895 5.08908 14.1898 5.08942 14.19 5.08963C14.1901 5.08974 14.1902 5.08982 14.1903 5.08987C14.1903 5.0899 14.1903 5.08991 14.1903 5.08992C14.1903 5.08993 14.1903 5.08993 14.2772 5ZM11.3528 2.875C11.1163 2.875 10.932 2.93527 10.777 3.03317C10.6253 3.129 10.5066 3.25802 10.3978 3.3845C10.176 3.6425 9.98432 3.89909 9.60469 4.03019L9.6863 4.2665C10.1421 4.1091 10.3776 3.79152 10.5874 3.54747C10.6945 3.42293 10.7927 3.31895 10.9105 3.24454C11.025 3.17221 11.1629 3.125 11.3528 3.125V2.875ZM4.87589 7.41321C4.90915 7.69094 4.90857 7.86417 4.90085 7.96486C4.897 8.01509 4.89141 8.04677 4.88756 8.06403C4.88564 8.07264 4.88417 8.07759 4.88359 8.07942C4.88331 8.08033 4.88324 8.08045 4.88346 8.07985C4.88357 8.07955 4.88375 8.07908 4.88401 8.07843C4.88414 8.0781 4.88429 8.07773 4.88446 8.07732C4.88454 8.07712 4.88463 8.0769 4.88473 8.07668C4.88477 8.07656 4.88482 8.07645 4.88487 8.07633C4.8849 8.07627 4.88494 8.07618 4.88495 8.07615C4.88499 8.07606 4.88503 8.07597 5.00001 8.125C5.11499 8.17403 5.11503 8.17394 5.11507 8.17385C5.11508 8.17381 5.11512 8.17372 5.11515 8.17366C5.1152 8.17353 5.11526 8.1734 5.11531 8.17326C5.11543 8.173 5.11554 8.17273 5.11566 8.17244C5.11589 8.17187 5.11613 8.17127 5.11639 8.17063C5.1169 8.16934 5.11745 8.1679 5.11805 8.16629C5.11923 8.16308 5.12056 8.15923 5.122 8.15468C5.12487 8.14557 5.12818 8.13364 5.13157 8.11845C5.13833 8.0881 5.14548 8.04449 5.15012 7.98397C5.15938 7.86316 5.1588 7.67307 5.12411 7.38348L4.87589 7.41321ZM4.88253 8.16772L5.38253 9.54272L5.61748 9.45728L5.11748 8.08228L4.88253 8.16772ZM5.00001 8.125C4.88537 8.07517 4.88536 8.07519 4.88535 8.07521C4.88535 8.07523 4.88533 8.07526 4.88532 8.07529C4.88528 8.07537 4.88524 8.07548 4.88517 8.07562C4.88505 8.07591 4.88486 8.07634 4.88462 8.07691C4.88412 8.07804 4.88339 8.07972 4.88243 8.08195C4.88051 8.08639 4.87765 8.09299 4.87391 8.10165C4.86642 8.11897 4.8554 8.14455 4.8412 8.17764C4.81279 8.24382 4.77169 8.34005 4.72081 8.46044C4.61906 8.70118 4.47818 9.03857 4.32164 9.42528C4.00889 10.1979 3.63239 11.1703 3.38087 11.9622L3.61914 12.0378C3.86763 11.2555 4.24113 10.2904 4.55338 9.51908C4.70934 9.13381 4.84971 8.79761 4.95108 8.55776C5.00177 8.43785 5.04269 8.34203 5.07093 8.27624C5.08505 8.24334 5.096 8.21795 5.10341 8.2008C5.10711 8.19222 5.10993 8.18571 5.11182 8.18135C5.11276 8.17917 5.11347 8.17753 5.11395 8.17644C5.11419 8.17589 5.11436 8.17548 5.11448 8.17522C5.11454 8.17508 5.11458 8.17498 5.11461 8.17492C5.11462 8.17488 5.11463 8.17486 5.11464 8.17484C5.11465 8.17483 5.11465 8.17483 5.00001 8.125ZM3.38087 11.9622C3.12487 12.7682 3.12372 13.4123 3.18882 13.8584C3.22133 14.0811 3.27026 14.2538 3.31174 14.3721C3.33248 14.4312 3.35135 14.4768 3.36539 14.5082C3.37241 14.5239 3.37822 14.536 3.38245 14.5446C3.38456 14.5489 3.38628 14.5522 3.38756 14.5547C3.3882 14.556 3.38873 14.557 3.38914 14.5577C3.38935 14.5581 3.38952 14.5585 3.38967 14.5587C3.38974 14.5589 3.38981 14.559 3.38987 14.5591C3.3899 14.5592 3.38994 14.5592 3.38995 14.5593C3.38999 14.5593 3.39002 14.5594 3.50001 14.5C3.60999 14.4406 3.61002 14.4407 3.61005 14.4407C3.61006 14.4407 3.61009 14.4408 3.6101 14.4408C3.61013 14.4409 3.61015 14.4409 3.61016 14.4409C3.61019 14.441 3.61019 14.441 3.61016 14.4409C3.61009 14.4408 3.60991 14.4404 3.60962 14.4399C3.60904 14.4387 3.60801 14.4367 3.60658 14.4338C3.60373 14.4281 3.59929 14.4188 3.59361 14.4061C3.58226 14.3807 3.56598 14.3416 3.54765 14.2894C3.51101 14.1849 3.46619 14.0278 3.4362 13.8223C3.3763 13.4119 3.37515 12.806 3.61914 12.0378L3.38087 11.9622ZM3.42225 14.5979L4.92225 15.7896L5.07777 15.5939L3.57777 14.4021L3.42225 14.5979ZM6.50001 18C6.42948 18.1032 6.42951 18.1032 6.42954 18.1032C6.42957 18.1033 6.42961 18.1033 6.42966 18.1033C6.42976 18.1034 6.4299 18.1035 6.43007 18.1036C6.43042 18.1038 6.43093 18.1042 6.4316 18.1046C6.43293 18.1056 6.43488 18.1069 6.43744 18.1086C6.44256 18.1121 6.45012 18.1172 6.46 18.1238C6.47978 18.137 6.5089 18.1564 6.54655 18.1811C6.62186 18.2304 6.73135 18.301 6.86863 18.3864C7.14311 18.557 7.5291 18.787 7.97532 19.0242C8.86372 19.4966 10.006 20.0063 10.9851 20.1241L11.0149 19.8759C10.0847 19.764 8.97696 19.2737 8.09269 18.8035C7.65258 18.5695 7.27157 18.3425 7.00063 18.174C6.86521 18.0898 6.75739 18.0203 6.68356 17.972C6.64665 17.9478 6.61824 17.9289 6.59913 17.9161C6.58958 17.9097 6.58236 17.9048 6.57756 17.9016C6.57516 17.8999 6.57336 17.8987 6.57219 17.8979C6.5716 17.8975 6.57117 17.8972 6.57089 17.897C6.57075 17.8969 6.57065 17.8969 6.57059 17.8968C6.57056 17.8968 6.57055 17.8968 6.57053 17.8968C6.57053 17.8968 6.57053 17.8968 6.50001 18ZM15.0372 20.1193C15.5372 19.9635 15.9381 19.7616 16.2743 19.4768C16.6105 19.192 16.8756 18.8298 17.1116 18.3623L16.8884 18.2496C16.6632 18.6958 16.4169 19.0284 16.1127 19.286C15.8085 19.5437 15.44 19.7319 14.9628 19.8807L15.0372 20.1193ZM4.8952 15.7599L5.6452 16.914L5.85482 16.7778L5.10482 15.6236L4.8952 15.7599ZM5.6452 16.914L6.3952 18.0681L6.60482 17.9319L5.85482 16.7778L5.6452 16.914ZM5.75001 16.8459C5.64594 16.7766 5.64592 16.7767 5.64589 16.7767C5.64587 16.7767 5.64584 16.7768 5.64581 16.7768C5.64575 16.7769 5.64567 16.777 5.64558 16.7772C5.6454 16.7774 5.64517 16.7778 5.64487 16.7783C5.64428 16.7791 5.64347 16.7804 5.64243 16.782C5.64037 16.7852 5.63744 16.7897 5.63373 16.7956C5.62631 16.8073 5.61578 16.8242 5.60286 16.8458C5.57703 16.8891 5.54154 16.9512 5.50219 17.0277C5.42378 17.1803 5.32869 17.3931 5.26494 17.6302C5.1388 18.0994 5.12684 18.7085 5.67735 19.1017L5.82267 18.8983C5.40156 18.5975 5.3896 18.1295 5.50637 17.6951C5.56406 17.4805 5.65115 17.2848 5.72456 17.142C5.76112 17.0708 5.79395 17.0134 5.81746 16.9741C5.8292 16.9544 5.8386 16.9393 5.84494 16.9293C5.84811 16.9243 5.85052 16.9206 5.85207 16.9182C5.85284 16.917 5.85341 16.9161 5.85374 16.9156C5.85391 16.9154 5.85403 16.9152 5.85408 16.9151C5.85411 16.9151 5.85412 16.9151 5.85412 16.9151C5.85412 16.9151 5.85411 16.9151 5.85411 16.9151C5.85409 16.9151 5.85407 16.9151 5.75001 16.8459ZM5.67735 19.1017C6.16142 19.4475 6.35437 19.5765 6.42673 19.6184C6.43633 19.624 6.44558 19.6291 6.45418 19.6332C6.45997 19.6361 6.47537 19.6435 6.49404 19.6473C6.50009 19.6485 6.53005 19.6549 6.56483 19.6419C6.58587 19.6341 6.6099 19.6185 6.62706 19.5916C6.64366 19.5655 6.64713 19.5392 6.64673 19.5211C6.64604 19.4899 6.63382 19.4676 6.63106 19.4625C6.6264 19.4539 6.62163 19.4473 6.6189 19.4437C6.60931 19.4311 6.59766 19.4201 6.59368 19.4163C6.59067 19.4135 6.58798 19.411 6.58604 19.4092C6.58506 19.4084 6.58423 19.4076 6.5836 19.4071C6.58329 19.4068 6.58303 19.4065 6.58282 19.4064C6.58271 19.4063 6.58262 19.4062 6.58254 19.4061C6.5825 19.4061 6.58247 19.4061 6.58244 19.406C6.58242 19.406 6.5824 19.406 6.58239 19.406C6.58237 19.406 6.58235 19.406 6.50001 19.5C6.41767 19.594 6.41765 19.594 6.41763 19.594C6.41763 19.594 6.41761 19.594 6.4176 19.594C6.41758 19.594 6.41757 19.594 6.41756 19.5939C6.41753 19.5939 6.41752 19.5939 6.41751 19.5939C6.41751 19.5939 6.41755 19.5939 6.41762 19.594C6.41778 19.5941 6.41808 19.5944 6.41848 19.5948C6.41931 19.5955 6.42043 19.5966 6.42158 19.5976C6.42593 19.6018 6.424 19.6005 6.42001 19.5952C6.41868 19.5935 6.41505 19.5886 6.41119 19.5815C6.40923 19.5778 6.39745 19.5568 6.39679 19.5266C6.3964 19.5089 6.39977 19.4831 6.41616 19.4573C6.4331 19.4307 6.45679 19.4154 6.47737 19.4077C6.51122 19.3951 6.53975 19.4015 6.54374 19.4023C6.55832 19.4052 6.56721 19.4102 6.56339 19.4084C6.56238 19.4079 6.55891 19.4061 6.552 19.4021C6.49227 19.3675 6.31022 19.2465 5.82267 18.8983L5.67735 19.1017ZM6.50001 19.5C6.4267 19.6012 6.42672 19.6013 6.42674 19.6013C6.42676 19.6013 6.42678 19.6013 6.42682 19.6013C6.42688 19.6014 6.42697 19.6014 6.42709 19.6015C6.42733 19.6017 6.42767 19.602 6.42813 19.6023C6.42903 19.6029 6.43037 19.6039 6.43212 19.6052C6.43561 19.6077 6.44078 19.6114 6.44753 19.6162C6.46104 19.6259 6.48089 19.6401 6.50641 19.6581C6.55744 19.6943 6.6312 19.746 6.72234 19.8088C6.90454 19.9341 7.15657 20.1036 7.43566 20.2795C7.71453 20.4553 8.02166 20.6384 8.31387 20.7907C8.60405 20.9419 8.88738 21.0671 9.11657 21.1216L9.17444 20.8784C8.97638 20.8313 8.71539 20.7181 8.42943 20.569C8.1455 20.421 7.84467 20.2418 7.56898 20.068C7.2935 19.8944 7.04438 19.7269 6.86407 19.6028C6.77395 19.5408 6.70111 19.4897 6.65086 19.4541C6.62574 19.4363 6.60627 19.4224 6.59313 19.413C6.58655 19.4083 6.58156 19.4047 6.57823 19.4023C6.57656 19.4011 6.57532 19.4002 6.57449 19.3996C6.57408 19.3993 6.57378 19.3991 6.57358 19.3989C6.57348 19.3989 6.57341 19.3988 6.57336 19.3988C6.57334 19.3988 6.57333 19.3988 6.57332 19.3988C6.57331 19.3988 6.57331 19.3988 6.50001 19.5ZM9.11657 21.1216C9.56238 21.2277 10.1294 21.2266 10.5767 21.201C10.8021 21.1882 11.0002 21.1689 11.1421 21.1528C11.2131 21.1448 11.2701 21.1375 11.3095 21.1322C11.3292 21.1296 11.3445 21.1275 11.355 21.126C11.3602 21.1252 11.3642 21.1247 11.367 21.1243C11.3684 21.1241 11.3694 21.1239 11.3702 21.1238C11.3705 21.1237 11.3708 21.1237 11.371 21.1237C11.3711 21.1237 11.3712 21.1236 11.3713 21.1236C11.3713 21.1236 11.3713 21.1236 11.3713 21.1236C11.3714 21.1236 11.3714 21.1236 11.3528 21C11.3342 20.8764 11.3342 20.8764 11.3342 20.8764C11.3342 20.8764 11.3342 20.8764 11.3342 20.8764C11.3342 20.8764 11.3341 20.8764 11.3341 20.8764C11.334 20.8764 11.3338 20.8765 11.3335 20.8765C11.3329 20.8766 11.332 20.8767 11.3308 20.8769C11.3284 20.8773 11.3247 20.8778 11.3198 20.8785C11.31 20.8799 11.2954 20.8819 11.2765 20.8844C11.2385 20.8895 11.1832 20.8965 11.114 20.9044C10.9756 20.9201 10.7821 20.9389 10.5625 20.9514C10.1198 20.9767 9.58312 20.9756 9.17444 20.8784L9.11657 21.1216ZM10.9851 20.1241C11.3825 20.1719 11.8902 20.1716 12.2944 20.1599C12.4974 20.1541 12.6759 20.1453 12.8037 20.1379C12.8676 20.1342 12.9189 20.1309 12.9543 20.1285C12.972 20.1273 12.9857 20.1264 12.9951 20.1257C12.9997 20.1254 13.0033 20.1251 13.0057 20.1249C13.0069 20.1248 13.0079 20.1248 13.0085 20.1247C13.0088 20.1247 13.009 20.1247 13.0092 20.1247C13.0093 20.1247 13.0094 20.1246 13.0094 20.1246C13.0094 20.1246 13.0095 20.1246 13.0095 20.1246C13.0095 20.1246 13.0095 20.1246 13 20C12.9905 19.8754 12.9905 19.8754 12.9905 19.8754C12.9905 19.8754 12.9905 19.8754 12.9905 19.8754C12.9905 19.8754 12.9904 19.8754 12.9903 19.8754C12.9902 19.8754 12.99 19.8754 12.9897 19.8754C12.9892 19.8755 12.9883 19.8755 12.9872 19.8756C12.985 19.8758 12.9816 19.876 12.9771 19.8763C12.9681 19.877 12.9547 19.8779 12.9374 19.8791C12.9028 19.8815 12.8524 19.8847 12.7894 19.8883C12.6634 19.8956 12.4873 19.9042 12.2872 19.91C11.8852 19.9217 11.393 19.9214 11.0149 19.8759L10.9851 20.1241ZM13 20C12.9772 20.1229 12.9773 20.1229 12.9773 20.1229C12.9773 20.1229 12.9773 20.1229 12.9774 20.1229C12.9774 20.1229 12.9775 20.123 12.9776 20.123C12.9778 20.123 12.9781 20.1231 12.9784 20.1231C12.9791 20.1233 12.9801 20.1234 12.9814 20.1237C12.984 20.1241 12.9878 20.1248 12.9927 20.1257C13.0024 20.1274 13.0167 20.1298 13.035 20.1329C13.0716 20.1389 13.1245 20.1472 13.1903 20.1565C13.3216 20.1749 13.5046 20.1971 13.7115 20.2118C14.1206 20.2411 14.6406 20.243 15.0372 20.1193L14.9628 19.8807C14.6137 19.9895 14.1337 19.9914 13.7293 19.9625C13.5294 19.9482 13.3522 19.9268 13.225 19.9089C13.1615 19.9 13.1106 19.892 13.0757 19.8862C13.0583 19.8833 13.0449 19.881 13.0359 19.8794C13.0314 19.8787 13.028 19.878 13.0258 19.8776C13.0247 19.8775 13.0239 19.8773 13.0234 19.8772C13.0232 19.8772 13.023 19.8771 13.0229 19.8771C13.0228 19.8771 13.0228 19.8771 13.0228 19.8771C13.0228 19.8771 13.0228 19.8771 13.0228 19.8771C13.0228 19.8771 13.0228 19.8771 13 20ZM11.4177 21.1069L13.0649 20.1069L12.9351 19.8931L11.2879 20.8931L11.4177 21.1069ZM13 20C12.933 20.1055 12.933 20.1055 12.933 20.1055C12.9331 20.1056 12.9331 20.1056 12.9332 20.1056C12.9333 20.1057 12.9334 20.1058 12.9336 20.1059C12.934 20.1061 12.9345 20.1065 12.9351 20.1069C12.9365 20.1077 12.9384 20.1089 12.9409 20.1105C12.946 20.1137 12.9533 20.1183 12.963 20.1242C12.9822 20.136 13.0104 20.1531 13.0466 20.1747C13.1192 20.2177 13.2242 20.2783 13.3548 20.3491C13.6157 20.4906 13.9798 20.6732 14.392 20.8374C14.8036 21.0014 15.2666 21.1484 15.7246 21.2164C16.1817 21.2842 16.6433 21.2749 17.0458 21.1163L16.9542 20.8837C16.6077 21.0202 16.1948 21.0334 15.7613 20.9691C15.3289 20.9049 14.8856 20.765 14.4845 20.6052C14.0839 20.4456 13.7289 20.2676 13.4739 20.1294C13.3465 20.0603 13.2443 20.0013 13.1742 19.9597C13.1392 19.9389 13.1121 19.9224 13.094 19.9113C13.0849 19.9057 13.0781 19.9014 13.0735 19.8986C13.0713 19.8972 13.0696 19.8961 13.0685 19.8954C13.068 19.8951 13.0676 19.8948 13.0673 19.8947C13.0672 19.8946 13.0671 19.8945 13.0671 19.8945C13.0671 19.8945 13.0671 19.8945 13.067 19.8945C13.067 19.8945 13.0671 19.8945 13 20ZM17.0458 21.1163C17.5914 20.9014 18.1086 20.3792 18.4817 19.9278C18.6704 19.6996 18.8263 19.4845 18.935 19.3264C18.9894 19.2473 19.0321 19.1824 19.0613 19.137C19.0759 19.1143 19.0872 19.0965 19.0948 19.0843C19.0986 19.0782 19.1016 19.0735 19.1035 19.0703C19.1045 19.0686 19.1053 19.0674 19.1059 19.0665C19.1061 19.0661 19.1063 19.0657 19.1065 19.0655C19.1065 19.0654 19.1066 19.0653 19.1067 19.0652C19.1067 19.0652 19.1067 19.0651 19.1067 19.0651C19.1067 19.0651 19.1067 19.0651 19 19C18.8933 18.9349 18.8933 18.9349 18.8933 18.9349C18.8933 18.9349 18.8933 18.9349 18.8933 18.9349C18.8933 18.935 18.8932 18.935 18.8932 18.9351C18.8931 18.9352 18.893 18.9355 18.8927 18.9358C18.8923 18.9365 18.8917 18.9375 18.8908 18.9389C18.8891 18.9417 18.8864 18.946 18.8829 18.9517C18.8758 18.9631 18.8651 18.9799 18.8511 19.0017C18.8231 19.0451 18.7818 19.108 18.729 19.1847C18.6233 19.3384 18.4719 19.5474 18.2891 19.7685C17.9191 20.216 17.4363 20.6938 16.9542 20.8837L17.0458 21.1163ZM19 19C19.0926 19.0839 19.0927 19.0839 19.0927 19.0839C19.0927 19.0839 19.0927 19.0839 19.0927 19.0839C19.0927 19.0838 19.0928 19.0838 19.0928 19.0837C19.0929 19.0836 19.093 19.0835 19.0932 19.0833C19.0935 19.083 19.0939 19.0825 19.0944 19.0819C19.0955 19.0807 19.0971 19.079 19.099 19.0768C19.103 19.0723 19.1088 19.0658 19.1161 19.0575C19.1307 19.0408 19.1515 19.0166 19.1769 18.9863C19.2276 18.9257 19.2967 18.8402 19.3703 18.7404C19.5152 18.544 19.687 18.28 19.7633 18.0375L19.5248 17.9625C19.4617 18.1631 19.3114 18.3991 19.1692 18.5919C19.0992 18.6867 19.0334 18.7682 18.9852 18.8258C18.9611 18.8546 18.9414 18.8774 18.9279 18.8929C18.9211 18.9007 18.9159 18.9066 18.9124 18.9105C18.9106 18.9124 18.9093 18.9139 18.9085 18.9148C18.9081 18.9153 18.9078 18.9156 18.9076 18.9159C18.9075 18.916 18.9074 18.916 18.9074 18.9161C18.9074 18.9161 18.9074 18.9161 18.9074 18.9161C18.9074 18.9161 18.9074 18.9161 18.9074 18.9161C18.9074 18.9161 18.9074 18.9161 19 19ZM19.0881 18.0887C19.2501 17.9277 19.348 17.7094 19.4072 17.4841C19.4666 17.2577 19.4894 17.0146 19.4941 16.7937C19.4989 16.5722 19.4856 16.3693 19.4713 16.222C19.4641 16.1482 19.4565 16.088 19.4508 16.0461C19.4479 16.0251 19.4455 16.0087 19.4437 15.9973C19.4429 15.9917 19.4422 15.9873 19.4417 15.9842C19.4414 15.9827 19.4412 15.9815 19.4411 15.9807C19.441 15.9803 19.441 15.9799 19.4409 15.9797C19.4409 15.9796 19.4409 15.9795 19.4409 15.9794C19.4409 15.9793 19.4409 15.9793 19.4409 15.9793C19.4409 15.9792 19.4408 15.9792 19.3176 16C19.1943 16.0208 19.1943 16.0208 19.1943 16.0208C19.1943 16.0208 19.1943 16.0208 19.1943 16.0208C19.1943 16.0208 19.1943 16.0208 19.1943 16.0208C19.1944 16.0209 19.1944 16.0211 19.1944 16.0214C19.1945 16.022 19.1947 16.0229 19.1949 16.0241C19.1953 16.0265 19.1959 16.0303 19.1966 16.0353C19.1982 16.0454 19.2004 16.0605 19.2031 16.0801C19.2085 16.1192 19.2156 16.1761 19.2224 16.2463C19.2362 16.3868 19.2487 16.5794 19.2442 16.7883C19.2397 16.9977 19.2181 17.2197 19.1654 17.4206C19.1124 17.6225 19.0304 17.7936 18.9119 17.9113L19.0881 18.0887ZM19.3176 16C19.4422 16.0102 19.4422 16.0102 19.4422 16.0102C19.4422 16.0102 19.4422 16.0102 19.4422 16.0102C19.4422 16.0101 19.4422 16.0101 19.4422 16.0101C19.4422 16.01 19.4422 16.0099 19.4422 16.0098C19.4422 16.0095 19.4423 16.009 19.4423 16.0084C19.4424 16.0071 19.4426 16.0051 19.4428 16.0026C19.4433 15.9974 19.4439 15.9897 19.4448 15.9798C19.4466 15.9598 19.4493 15.9307 19.453 15.8944C19.4603 15.8218 19.4713 15.7203 19.4861 15.6055C19.5161 15.374 19.5607 15.0945 19.6202 14.8854L19.3798 14.817C19.3149 15.0448 19.2684 15.3397 19.2382 15.5734C19.223 15.6911 19.2117 15.795 19.2042 15.8694C19.2005 15.9067 19.1977 15.9366 19.1958 15.9573C19.1949 15.9677 19.1942 15.9757 19.1937 15.9812C19.1935 15.984 19.1933 15.9861 19.1932 15.9875C19.1931 15.9883 19.1931 15.9888 19.1931 15.9892C19.193 15.9894 19.193 15.9895 19.193 15.9896C19.193 15.9897 19.193 15.9897 19.193 15.9898C19.193 15.9898 19.193 15.9898 19.193 15.9898C19.193 15.9898 19.193 15.9898 19.3176 16ZM19.7633 18.0375C19.8938 17.6228 19.8024 17.0918 19.6905 16.6838C19.6335 16.4761 19.569 16.2929 19.5188 16.1617C19.4936 16.096 19.472 16.0431 19.4566 16.0065C19.4488 15.9881 19.4427 15.9738 19.4384 15.964C19.4362 15.9591 19.4345 15.9553 19.4334 15.9527C19.4328 15.9514 19.4323 15.9504 19.432 15.9497C19.4319 15.9493 19.4317 15.949 19.4316 15.9488C19.4316 15.9487 19.4315 15.9486 19.4315 15.9486C19.4315 15.9485 19.4315 15.9485 19.4315 15.9485C19.4315 15.9484 19.4314 15.9484 19.3176 16C19.2037 16.0516 19.2037 16.0516 19.2037 16.0516C19.2037 16.0516 19.2037 16.0515 19.2037 16.0516C19.2037 16.0516 19.2037 16.0516 19.2038 16.0516C19.2038 16.0517 19.2039 16.0519 19.204 16.0521C19.2042 16.0526 19.2045 16.0534 19.205 16.0545C19.206 16.0566 19.2074 16.0599 19.2094 16.0643C19.2132 16.0731 19.2189 16.0863 19.2262 16.1035C19.2406 16.1379 19.2612 16.1882 19.2853 16.251C19.3334 16.3768 19.3951 16.5521 19.4494 16.75C19.5601 17.1533 19.6319 17.6223 19.5248 17.9625L19.7633 18.0375ZM6.87615 13.5169C7.00895 14.4922 7.27444 15.4961 7.76125 16.2678C8.25103 17.0442 8.9694 17.5906 9.99583 17.6249L10.0042 17.3751C9.07909 17.3442 8.42917 16.858 7.9727 16.1344C7.51325 15.4061 7.2545 14.4426 7.12387 13.4831L6.87615 13.5169ZM9.60469 4.03019C9.08462 4.20979 8.52201 4.36415 7.96368 4.53222C7.40875 4.69926 6.86083 4.87911 6.38514 5.10728C5.90993 5.33521 5.49676 5.61597 5.21995 5.99043C4.9402 6.36886 4.8065 6.83392 4.87589 7.41321L5.12411 7.38348C5.06184 6.86359 5.18139 6.46315 5.42099 6.13904C5.66352 5.81095 6.03578 5.55212 6.49326 5.33269C6.95026 5.11349 7.48229 4.9382 8.03574 4.77161C8.58578 4.60604 9.15997 4.44826 9.6863 4.2665L9.60469 4.03019Z" fill="black"/>
</svg>
