<svg width="24" height="24" viewBox="0 0 24 24" fill="none" xmlns="http://www.w3.org/2000/svg">
<path d="M4.73972 12.1678L11.6263 4.42042C11.8252 4.19666 12.174 4.19577 12.3729 4.41952L19.2626 12.1704C19.5492 12.4929 19.318 13 18.8866 13H18.4999C18.2238 13 18 13.2239 18 13.5V19C18 19.2761 17.7761 19.5 17.5 19.5H14.5C14.2239 19.5 14 19.3402 14 19.064V17C14 14 10 14 10 17V19.064C10 19.3402 9.77614 19.5 9.5 19.5H6.5C6.22386 19.5 6 19.2761 6 19V13.5C6 13.2239 5.77614 13 5.5 13H5.11342C4.682 13 4.45309 12.4903 4.73972 12.1678Z" stroke="black"/>
</svg>
