<svg width="24" height="24" viewBox="0 0 24 24" fill="none" xmlns="http://www.w3.org/2000/svg">
<path fill-rule="evenodd" clip-rule="evenodd" d="M17 3C17 2.44772 16.5523 2 16 2H8C7.44772 2 7 2.44772 7 3V21C7 21.5523 7.44772 22 8 22H16C16.5523 22 17 21.5523 17 21V3ZM16.5833 3.5C16.5833 2.94772 16.1356 2.5 15.5833 2.5H8.41667C7.86438 2.5 7.41667 2.94772 7.41667 3.5V19.5C7.41667 20.0523 7.86438 20.5 8.41667 20.5H15.5833C16.1356 20.5 16.5833 20.0523 16.5833 19.5V3.5Z" fill="black"/>
<path fill-rule="evenodd" clip-rule="evenodd" d="M10 2.5C10.2761 2.5 10.5 2.72386 10.5 3V3.20711C10.5 3.30914 10.5221 3.40889 10.5635 3.5C10.5983 3.57636 10.6466 3.64664 10.7071 3.70711L10.75 3.75C10.9101 3.91007 11.1272 4 11.3536 4H12.6464C12.8728 4 13.0899 3.91007 13.25 3.75L13.2929 3.70711C13.3534 3.64664 13.4017 3.57636 13.4365 3.5C13.4779 3.40889 13.5 3.30914 13.5 3.20711V3C13.5 2.72386 13.7239 2.5 14 2.5H10ZM11.25 3.25C11.25 3.38807 11.1381 3.5 11 3.5C10.8619 3.5 10.75 3.38807 10.75 3.25C10.75 3.11193 10.8619 3 11 3C11.1381 3 11.25 3.11193 11.25 3.25ZM12.99 3.5C13.1281 3.5 13.24 3.38807 13.24 3.25C13.24 3.11193 13.1281 3 12.99 3C12.8519 3 12.74 3.11193 12.74 3.25C12.74 3.38807 12.8519 3.5 12.99 3.5Z" fill="black"/>
<path d="M11.25 19.75C11.25 19.6119 11.3619 19.5 11.5 19.5H12.5C12.6381 19.5 12.75 19.6119 12.75 19.75C12.75 19.8881 12.6381 20 12.5 20H11.5C11.3619 20 11.25 19.8881 11.25 19.75Z" fill="black"/>
</svg>
